<svg width="130" height="48" viewBox="0 0 130 48" fill="none" xmlns="http://www.w3.org/2000/svg">
<path d="M119.227 0.221682H10.7786C10.3832 0.221682 9.99268 0.221682 9.59842 0.224043C9.26838 0.226404 8.94098 0.233264 8.60777 0.239038C7.8839 0.248367 7.16173 0.318116 6.44753 0.447677C5.73434 0.580059 5.04349 0.829636 4.39835 1.18797C3.754 1.54933 3.16523 2.01888 2.65342 2.5796C2.13891 3.13873 1.71004 3.78501 1.38327 4.49359C1.05561 5.20077 0.828408 5.95857 0.709513 6.74082C0.589487 7.52209 0.5249 8.31236 0.516332 9.10455C0.506328 9.46655 0.505272 9.82975 0.5 10.1918V37.4825C0.505272 37.8491 0.506328 38.2043 0.516332 38.571C0.524903 39.3631 0.58949 40.1534 0.709513 40.9346C0.82808 41.7173 1.0553 42.4755 1.38327 43.183C1.70989 43.8893 2.13883 44.5329 2.65342 45.089C3.16329 45.6522 3.75244 46.122 4.39835 46.4806C5.04349 46.8399 5.73426 47.091 6.44753 47.2254C7.16185 47.3539 7.88394 47.4237 8.60777 47.4342C8.94098 47.4422 9.26838 47.4468 9.59842 47.4468C9.99267 47.4491 10.3833 47.4491 10.7786 47.4491H119.227C119.615 47.4491 120.008 47.4491 120.396 47.4468C120.724 47.4468 121.061 47.4422 121.39 47.4342C122.112 47.4243 122.833 47.3545 123.546 47.2254C124.261 47.09 124.954 46.839 125.603 46.4806C126.248 46.1218 126.837 45.652 127.346 45.089C127.859 44.5308 128.289 43.8876 128.62 43.183C128.945 42.475 129.17 41.7168 129.287 40.9346C129.408 40.1533 129.474 39.3632 129.487 38.571C129.492 38.2043 129.492 37.8491 129.492 37.4825C129.5 37.0536 129.5 36.627 129.5 36.1911V11.4809C129.5 11.0485 129.5 10.6196 129.492 10.1918C129.492 9.82975 129.492 9.46655 129.487 9.10451C129.474 8.31225 129.408 7.52215 129.287 6.74077C129.17 5.95897 128.945 5.20123 128.62 4.49355C127.954 3.07327 126.899 1.91718 125.603 1.18786C124.954 0.830405 124.261 0.580894 123.546 0.447571C122.833 0.317439 122.112 0.247666 121.39 0.238873C121.061 0.233111 120.724 0.226192 120.396 0.22389C120.008 0.221528 119.615 0.221682 119.227 0.221682Z" fill="#A6A6A6"/>
<path d="M9.6029 46.4152C9.27445 46.4152 8.95394 46.4106 8.62806 46.4025C7.95299 46.3929 7.27949 46.3285 6.6131 46.21C5.99172 46.0927 5.38977 45.8747 4.82711 45.5631C4.2696 45.254 3.76111 44.8487 3.32112 44.3628C2.87475 43.8826 2.50313 43.3256 2.22099 42.7139C1.93573 42.0983 1.73832 41.4384 1.63562 40.7573C1.52472 40.0254 1.46472 39.2854 1.45614 38.5435C1.4493 38.2945 1.44035 37.4654 1.44035 37.4654V10.1909C1.44035 10.1909 1.44988 9.37457 1.45619 9.13474C1.46441 8.39408 1.52406 7.65517 1.63463 6.92441C1.73752 6.24141 1.93508 5.57963 2.22049 4.96199C2.5016 4.35077 2.87116 3.79339 3.31483 3.31145C3.75801 2.82494 4.26812 2.41758 4.82658 2.10424C5.38795 1.79358 5.98876 1.57709 6.60888 1.46201C7.27747 1.34225 7.9533 1.2775 8.63072 1.26831L9.60343 1.25389H120.39L121.374 1.26889C122.045 1.27763 122.715 1.3418 123.377 1.46086C124.004 1.57737 124.611 1.79538 125.179 2.1077C126.297 2.73918 127.208 3.73825 127.782 4.96488C128.063 5.57825 128.257 6.23463 128.359 6.91173C128.471 7.64848 128.534 8.3932 128.546 9.13994C128.55 9.47431 128.55 9.83347 128.55 10.1909C128.558 10.6337 128.558 11.0551 128.558 11.48V36.1902C128.558 36.6191 128.558 37.0377 128.55 37.4597C128.55 37.8436 128.55 38.1953 128.545 38.5573C128.533 39.2907 128.471 40.0222 128.361 40.7457C128.26 41.4318 128.064 42.0968 127.779 42.7175C127.495 43.3225 127.125 43.8746 126.684 44.3536C126.244 44.8421 125.734 45.2498 125.176 45.5608C124.609 45.8749 124.003 46.0937 123.377 46.21C122.711 46.3292 122.038 46.3935 121.362 46.4025C121.047 46.4106 120.716 46.4152 120.395 46.4152L119.226 46.4175L9.6029 46.4152Z" fill="black"/>
<path d="M27.2025 24.1913C27.2141 23.2059 27.4531 22.2396 27.8972 21.3825C28.3414 20.5254 28.9763 19.8052 29.7429 19.289C29.2559 18.5273 28.6135 17.9004 27.8666 17.4582C27.1197 17.016 26.289 16.7706 25.4404 16.7415C23.6301 16.5334 21.8751 17.9279 20.9527 17.9279C20.0123 17.9279 18.5921 16.7622 17.0626 16.7966C16.0734 16.8316 15.1093 17.1467 14.2642 17.7111C13.4192 18.2756 12.7221 19.0701 12.2408 20.0174C10.1559 23.9708 11.711 29.781 13.7081 32.9767C14.7074 34.5415 15.8752 36.2895 17.4032 36.2275C18.8985 36.1595 19.4569 35.1832 21.2619 35.1832C23.05 35.1832 23.574 36.2275 25.133 36.1881C26.7375 36.1595 27.7484 34.6163 28.7126 33.0366C29.4305 31.9216 29.983 30.6893 30.3495 29.3854C29.4173 28.9535 28.6218 28.2308 28.0622 27.3071C27.5026 26.3835 27.2036 25.2998 27.2025 24.1913Z" fill="white"/>
<path d="M24.2577 14.6394C25.1325 13.4892 25.5635 12.0107 25.4592 10.5181C24.1226 10.6718 22.888 11.3715 22.0013 12.4776C21.5678 13.0179 21.2358 13.6466 21.0242 14.3275C20.8127 15.0085 20.7258 15.7285 20.7684 16.4463C21.4369 16.4538 22.0983 16.2952 22.7027 15.9822C23.3071 15.6692 23.8388 15.2101 24.2577 14.6394Z" fill="white"/>
<path d="M46.1043 32.2637H41.0016L39.7762 36.2266H37.6149L42.4481 21.5648H44.6936L49.5268 36.2266H47.3286L46.1043 32.2637ZM41.5301 30.435H45.5748L43.5809 24.0035H43.5251L41.5301 30.435Z" fill="white"/>
<path d="M59.9642 30.8822C59.9642 34.204 58.3409 36.3383 55.8911 36.3383C55.2706 36.3738 54.6534 36.2173 54.1103 35.8865C53.5672 35.5557 53.1201 35.0642 52.8203 34.4681H52.7739V39.7627H50.7705V25.5368H52.7097V27.3148H52.7466C53.0602 26.7215 53.5148 26.2325 54.0621 25.8997C54.6093 25.5669 55.2287 25.4029 55.8543 25.425C58.3314 25.425 59.9642 27.5696 59.9642 30.8822ZM57.905 30.8822C57.905 28.718 56.8839 27.2952 55.3258 27.2952C53.7951 27.2952 52.7655 28.748 52.7655 30.8822C52.7655 33.036 53.7951 34.4785 55.3258 34.4785C56.8839 34.4785 57.905 33.066 57.905 30.8822Z" fill="white"/>
<path d="M70.7062 30.8822C70.7062 34.204 69.0829 36.3382 66.6332 36.3382C66.0126 36.3738 65.3954 36.2172 64.8523 35.8865C64.3092 35.5557 63.8622 35.0642 63.5623 34.468H63.5159V39.7627H61.5125V25.5368H63.4517V27.3148H63.4885C63.8022 26.7215 64.2568 26.2325 64.8041 25.8997C65.3513 25.5669 65.9707 25.4029 66.5963 25.425C69.0734 25.425 70.7062 27.5696 70.7062 30.8822ZM68.6471 30.8822C68.6471 28.718 67.6259 27.2952 66.0678 27.2952C64.5371 27.2952 63.5075 28.748 63.5075 30.8822C63.5075 33.036 64.5371 34.4784 66.0678 34.4784C67.6259 34.4784 68.6471 33.066 68.6471 30.8822Z" fill="white"/>
<path d="M77.8057 32.1421C77.9541 33.5961 79.2438 34.5507 81.0061 34.5507C82.6947 34.5507 83.9095 33.596 83.9095 32.2851C83.9095 31.147 83.1768 30.4656 81.4419 29.9986L79.707 29.5409C77.2488 28.8906 76.1076 27.6315 76.1076 25.5883C76.1076 23.0586 78.1205 21.321 80.9787 21.321C83.8074 21.321 85.7466 23.0586 85.8119 25.5883H83.7895C83.6684 24.1252 82.5641 23.242 80.9502 23.242C79.3364 23.242 78.232 24.1356 78.232 25.4361C78.232 26.4727 78.9374 27.0827 80.6628 27.5496L82.1377 27.9462C84.8844 28.6576 86.0256 29.866 86.0256 32.0106C86.0256 34.7536 84.0306 36.4716 80.8576 36.4716C77.8888 36.4716 75.8844 34.794 75.7549 32.142L77.8057 32.1421Z" fill="white"/>
<path d="M90.348 23.007V25.5367H92.204V27.2743H90.348V33.1673C90.348 34.0828 90.7197 34.5094 91.5355 34.5094C91.7559 34.5052 91.9759 34.4883 92.1946 34.4587V36.1859C91.8277 36.2609 91.4549 36.2949 91.0818 36.2873C89.1058 36.2873 88.3352 35.4745 88.3352 33.4013V27.2743H86.9161V25.5367H88.3351V23.007H90.348Z" fill="white"/>
<path d="M93.2789 30.8853C93.2789 27.522 95.0875 25.4085 97.9078 25.4085C100.738 25.4085 102.538 27.522 102.538 30.8853C102.538 34.2579 100.747 36.3622 97.9078 36.3622C95.0695 36.3622 93.2789 34.2579 93.2789 30.8853ZM100.497 30.8853C100.497 28.5782 99.5311 27.2164 97.9078 27.2164C96.2845 27.2164 95.3201 28.5885 95.3201 30.8853C95.3201 33.2017 96.2845 34.5531 97.9078 34.5531C99.5311 34.5531 100.497 33.2017 100.497 30.8853Z" fill="white"/>
<path d="M104.192 25.5369H106.102V27.3564H106.149C106.278 26.7881 106.582 26.2859 107.009 25.9342C107.437 25.5825 107.962 25.4027 108.496 25.4251C108.727 25.4242 108.957 25.4517 109.183 25.5069V27.5593C108.891 27.4618 108.587 27.417 108.283 27.4267C107.992 27.4138 107.701 27.47 107.432 27.5915C107.163 27.7129 106.921 27.8968 106.722 28.1305C106.524 28.3641 106.374 28.642 106.283 28.945C106.192 29.2481 106.162 29.5691 106.195 29.8861V36.2265H104.192L104.192 25.5369Z" fill="white"/>
<path d="M118.416 33.0899C118.147 35.0304 116.421 36.3622 114.214 36.3622C111.374 36.3622 109.612 34.2787 109.612 30.9361C109.612 27.5831 111.384 25.4085 114.129 25.4085C116.83 25.4085 118.528 27.4401 118.528 30.6813V31.433H111.634V31.5656C111.603 31.959 111.648 32.3553 111.766 32.7282C111.885 33.1012 112.075 33.4421 112.323 33.7285C112.572 34.0149 112.873 34.2401 113.207 34.3892C113.541 34.5383 113.9 34.608 114.26 34.5934C114.733 34.642 115.208 34.5219 115.615 34.251C116.021 33.9801 116.336 33.5729 116.514 33.0899L118.416 33.0899ZM111.644 29.8995H116.523C116.541 29.5458 116.492 29.1918 116.38 28.8598C116.267 28.5278 116.092 28.2249 115.868 27.9701C115.643 27.7154 115.372 27.5143 115.073 27.3794C114.774 27.2445 114.453 27.1789 114.129 27.1865C113.803 27.1843 113.48 27.253 113.178 27.3885C112.876 27.5239 112.602 27.7236 112.371 27.9758C112.139 28.228 111.956 28.5279 111.832 28.8581C111.707 29.1882 111.643 29.5422 111.644 29.8995Z" fill="white"/>
<path d="M41.277 10.5286C41.697 10.4956 42.1185 10.5651 42.511 10.7321C42.9035 10.899 43.2573 11.1594 43.5468 11.4942C43.8364 11.8291 44.0544 12.2302 44.1853 12.6685C44.3162 13.1069 44.3566 13.5716 44.3036 14.0291C44.3036 16.2798 43.193 17.5735 41.277 17.5735H38.9536V10.5286H41.277ZM39.9526 16.5772H41.1654C41.4655 16.5969 41.7659 16.543 42.0446 16.4195C42.3233 16.296 42.5733 16.1059 42.7765 15.8632C42.9797 15.6205 43.131 15.3312 43.2192 15.0164C43.3075 14.7016 43.3305 14.3693 43.2867 14.0435C43.3273 13.719 43.3019 13.3887 43.2123 13.0762C43.1227 12.7637 42.9711 12.4768 42.7684 12.236C42.5657 11.9952 42.3168 11.8065 42.0397 11.6835C41.7625 11.5604 41.464 11.506 41.1654 11.5241H39.9526V16.5772Z" fill="white"/>
<path d="M45.4339 14.9144C45.4034 14.565 45.4399 14.2125 45.5411 13.8794C45.6422 13.5464 45.8058 13.2402 46.0214 12.9805C46.2369 12.7207 46.4996 12.5132 46.7927 12.3712C47.0857 12.2292 47.4027 12.1558 47.7231 12.1558C48.0436 12.1558 48.3605 12.2292 48.6536 12.3712C48.9466 12.5132 49.2094 12.7207 49.4249 12.9805C49.6404 13.2402 49.804 13.5464 49.9052 13.8794C50.0064 14.2125 50.0429 14.565 50.0123 14.9144C50.0434 15.2641 50.0074 15.6171 49.9065 15.9507C49.8056 16.2843 49.6421 16.591 49.4265 16.8513C49.2109 17.1115 48.948 17.3195 48.6546 17.4618C48.3613 17.6041 48.044 17.6776 47.7231 17.6776C47.4023 17.6776 47.085 17.6041 46.7916 17.4618C46.4983 17.3195 46.2354 17.1115 46.0198 16.8513C45.8042 16.591 45.6407 16.2843 45.5398 15.9507C45.4389 15.6171 45.4028 15.2641 45.4339 14.9144ZM49.027 14.9144C49.027 13.7619 48.5543 13.088 47.7247 13.088C46.892 13.088 46.4235 13.7619 46.4235 14.9144C46.4235 16.076 46.892 16.7448 47.7247 16.7448C48.5543 16.7448 49.027 16.0714 49.027 14.9144Z" fill="white"/>
<path d="M56.0973 17.5744H55.1035L54.1003 13.6587H54.0245L53.0254 17.5744H52.0411L50.703 12.2578H51.6747L52.5443 16.3147H52.6159L53.6139 12.2578H54.5329L55.531 16.3147H55.6068L56.4721 12.2578H57.4301L56.0973 17.5744Z" fill="white"/>
<path d="M58.5564 12.2577H59.4786V13.1023H59.5501C59.6716 12.799 59.8764 12.5447 60.1361 12.3749C60.3957 12.2051 60.6973 12.1283 60.9987 12.1551C61.2349 12.1357 61.4721 12.1747 61.6926 12.2692C61.9132 12.3638 62.1115 12.5115 62.2729 12.7014C62.4342 12.8913 62.5545 13.1186 62.6248 13.3663C62.6951 13.614 62.7136 13.8759 62.6789 14.1325V17.5742H61.7209V14.396C61.7209 13.5416 61.3819 13.1167 60.6734 13.1167C60.5131 13.1086 60.353 13.1384 60.2042 13.2044C60.0553 13.2703 59.9213 13.3707 59.8112 13.4986C59.7011 13.6266 59.6176 13.7791 59.5663 13.9458C59.5151 14.1124 59.4974 14.2892 59.5143 14.464V17.5743H58.5563L58.5564 12.2577Z" fill="white"/>
<path d="M64.2033 10.1818H65.1613V17.5738H64.2033V10.1818Z" fill="white"/>
<path d="M66.4945 14.9142C66.464 14.5648 66.5005 14.2123 66.6017 13.8793C66.7029 13.5462 66.8665 13.24 67.0821 12.9803C67.2977 12.7205 67.5604 12.513 67.8535 12.371C68.1466 12.229 68.4635 12.1556 68.784 12.1556C69.1045 12.1556 69.4214 12.229 69.7145 12.371C70.0076 12.513 70.2703 12.7205 70.4859 12.9803C70.7015 13.24 70.8651 13.5462 70.9663 13.8793C71.0675 14.2123 71.104 14.5648 71.0735 14.9142C71.1045 15.264 71.0684 15.617 70.9675 15.9506C70.8666 16.2842 70.7031 16.5909 70.4874 16.8511C70.2718 17.1114 70.0089 17.3193 69.7155 17.4616C69.4222 17.6039 69.1049 17.6775 68.784 17.6775C68.4632 17.6775 68.1458 17.6039 67.8525 17.4616C67.5591 17.3193 67.2962 17.1114 67.0806 16.8511C66.8649 16.5909 66.7014 16.2842 66.6005 15.9506C66.4996 15.617 66.4635 15.264 66.4945 14.9142ZM70.0876 14.9142C70.0876 13.7618 69.6149 13.0879 68.7853 13.0879C67.9526 13.0879 67.4842 13.7618 67.4842 14.9143C67.4842 16.0759 67.9526 16.7447 68.7853 16.7447C69.6149 16.7447 70.0876 16.0713 70.0876 14.9142Z" fill="white"/>
<path d="M72.08 16.0712C72.08 15.1142 72.7306 14.5625 73.8854 14.4841L75.2003 14.4011V13.9422C75.2003 13.3807 74.8613 13.0636 74.2065 13.0636C73.6717 13.0636 73.3012 13.2787 73.1948 13.6545H72.2674C72.3653 12.7414 73.1496 12.1556 74.2507 12.1556C75.4677 12.1556 76.1541 12.8192 76.1541 13.9422V17.5748H75.2319V16.8276H75.1561C75.0023 17.0956 74.7862 17.3141 74.5301 17.4608C74.2739 17.6074 73.9868 17.677 73.6981 17.6624C73.4943 17.6856 73.2883 17.6618 73.0934 17.5925C72.8986 17.5232 72.7191 17.4099 72.5667 17.26C72.4142 17.1101 72.2922 16.9269 72.2083 16.7221C72.1245 16.5174 72.0808 16.2956 72.08 16.0712ZM75.2003 15.617V15.1725L74.0149 15.2555C73.3464 15.3045 73.0432 15.5535 73.0432 16.0222C73.0432 16.5007 73.4222 16.7792 73.9434 16.7792C74.0961 16.7961 74.2503 16.7792 74.3969 16.7295C74.5435 16.6798 74.6795 16.5984 74.7968 16.4899C74.9141 16.3815 75.0102 16.2483 75.0796 16.0983C75.1489 15.9484 75.1899 15.7847 75.2003 15.617Z" fill="white"/>
<path d="M77.4155 14.9132C77.4155 13.2333 78.204 12.1691 79.4305 12.1691C79.7338 12.1538 80.0349 12.2333 80.2985 12.3985C80.5621 12.5637 80.7774 12.8076 80.9191 13.1018H80.9907V10.1818H81.9487V17.5738H81.0307V16.7338H80.9549C80.8022 17.026 80.5795 17.2669 80.3108 17.4304C80.0421 17.5939 79.7377 17.6738 79.4305 17.6614C78.1956 17.6615 77.4155 16.5972 77.4155 14.9132ZM78.4051 14.9132C78.4051 16.0409 78.8904 16.7194 79.7021 16.7194C80.5096 16.7194 81.0086 16.0311 81.0086 14.9179C81.0086 13.8098 80.5043 13.1117 79.7021 13.1117C78.8957 13.1117 78.4051 13.7948 78.4051 14.9132Z" fill="white"/>
<path d="M85.9099 14.9144C85.8794 14.565 85.9159 14.2125 86.0171 13.8794C86.1182 13.5464 86.2818 13.2402 86.4974 12.9805C86.7129 12.7207 86.9756 12.5132 87.2687 12.3712C87.5617 12.2292 87.8787 12.1558 88.1991 12.1558C88.5196 12.1558 88.8365 12.2292 89.1296 12.3712C89.4226 12.5132 89.6853 12.7207 89.9009 12.9805C90.1164 13.2402 90.28 13.5464 90.3812 13.8794C90.4824 14.2125 90.5189 14.565 90.4883 14.9144C90.5194 15.2641 90.4834 15.6171 90.3825 15.9507C90.2816 16.2843 90.1181 16.591 89.9025 16.8513C89.6869 17.1115 89.424 17.3195 89.1306 17.4618C88.8373 17.6041 88.52 17.6776 88.1991 17.6776C87.8783 17.6776 87.561 17.6041 87.2676 17.4618C86.9743 17.3195 86.7114 17.1115 86.4958 16.8513C86.2802 16.591 86.1167 16.2843 86.0158 15.9507C85.9149 15.6171 85.8788 15.2641 85.9099 14.9144ZM89.503 14.9144C89.503 13.7619 89.0303 13.088 88.2007 13.088C87.368 13.088 86.8995 13.7619 86.8995 14.9144C86.8995 16.076 87.368 16.7448 88.2007 16.7448C89.0303 16.7448 89.503 16.0714 89.503 14.9144Z" fill="white"/>
<path d="M91.7761 12.2577H92.6983V13.1023H92.7699C92.8913 12.799 93.0961 12.5447 93.3558 12.3749C93.6155 12.2051 93.917 12.1283 94.2184 12.1551C94.4546 12.1357 94.6918 12.1747 94.9124 12.2692C95.1329 12.3638 95.3312 12.5115 95.4926 12.7014C95.6539 12.8913 95.7742 13.1186 95.8445 13.3663C95.9148 13.614 95.9333 13.8759 95.8986 14.1325V17.5742H94.9406V14.396C94.9406 13.5416 94.6017 13.1167 93.8932 13.1167C93.7328 13.1086 93.5727 13.1384 93.4239 13.2044C93.275 13.2703 93.141 13.3707 93.0309 13.4986C92.9208 13.6266 92.8373 13.7791 92.786 13.9458C92.7348 14.1124 92.7171 14.2892 92.7341 14.464V17.5743H91.7761V12.2577Z" fill="white"/>
<path d="M101.311 10.933V12.2809H102.363V13.1647H101.311V15.8985C101.311 16.4554 101.521 16.6992 101.998 16.6992C102.12 16.6988 102.242 16.6907 102.363 16.675V17.549C102.191 17.5827 102.017 17.6006 101.842 17.6026C100.777 17.6026 100.352 17.1921 100.352 16.1671V13.1646H99.5817V12.2808H100.352V10.933H101.311Z" fill="white"/>
<path d="M103.671 10.1818H104.62V13.1116H104.696C104.823 12.8055 105.034 12.5497 105.299 12.3793C105.563 12.2089 105.87 12.132 106.176 12.1592C106.411 12.1452 106.646 12.1882 106.864 12.2851C107.082 12.3819 107.278 12.5303 107.438 12.7196C107.597 12.9089 107.717 13.1345 107.788 13.3803C107.859 13.626 107.879 13.8858 107.848 14.1413V17.5738H106.889V14.4001C106.889 13.5509 106.528 13.1208 105.851 13.1208C105.686 13.1061 105.521 13.1308 105.366 13.1935C105.211 13.2561 105.07 13.3551 104.954 13.4835C104.837 13.6119 104.748 13.7666 104.692 13.9367C104.635 14.1069 104.614 14.2885 104.629 14.4687V17.5738H103.671L103.671 10.1818Z" fill="white"/>
<path d="M113.436 16.1392C113.305 16.6251 113.023 17.0454 112.639 17.3265C112.254 17.6077 111.792 17.7319 111.332 17.6773C111.012 17.6865 110.694 17.6194 110.401 17.4807C110.107 17.3419 109.844 17.1348 109.631 16.8737C109.418 16.6126 109.259 16.3038 109.165 15.9687C109.072 15.6336 109.046 15.2802 109.09 14.9331C109.047 14.5849 109.073 14.2308 109.167 13.8947C109.26 13.5586 109.418 13.2484 109.63 12.985C109.842 12.7216 110.104 12.5112 110.397 12.3681C110.69 12.225 111.007 12.1525 111.328 12.1555C112.679 12.1555 113.493 13.1662 113.493 14.8357V15.2018H110.066V15.2606C110.051 15.4557 110.073 15.6521 110.131 15.8371C110.19 16.0222 110.283 16.1919 110.404 16.3353C110.526 16.4787 110.674 16.5926 110.838 16.6699C111.002 16.7471 111.18 16.7858 111.358 16.7837C111.588 16.8138 111.82 16.7686 112.025 16.6538C112.231 16.5391 112.401 16.3599 112.513 16.1391L113.436 16.1392ZM110.066 14.4258H112.517C112.53 14.2473 112.507 14.0681 112.452 13.8996C112.398 13.7311 112.311 13.5771 112.199 13.4473C112.086 13.3176 111.95 13.2151 111.799 13.1465C111.648 13.0778 111.486 13.0444 111.323 13.0485C111.157 13.0462 110.992 13.0803 110.839 13.1487C110.686 13.2171 110.546 13.3185 110.429 13.4469C110.312 13.5752 110.219 13.728 110.157 13.8961C110.095 14.0642 110.063 14.2443 110.066 14.4258Z" fill="white"/>
</svg>
