<svg width="56" height="56" viewBox="0 0 56 56" fill="none" xmlns="http://www.w3.org/2000/svg">
<rect opacity="0.6" x="0.5" y="0.925537" width="55" height="55" rx="24" fill="#FFB800"/>
<path fill-rule="evenodd" clip-rule="evenodd" d="M27.3359 13.0922C27.3359 12.7241 27.6333 12.4255 28 12.4255C28.3667 12.4255 28.6641 12.7241 28.6641 13.0922V18.4255C28.6641 18.7937 28.3667 19.0922 28 19.0922C27.6333 19.0922 27.3359 18.7937 27.3359 18.4255V13.0922ZM20.9567 21.0781L17.2001 17.3068C16.9407 17.0465 16.5203 17.0465 16.2609 17.3068C16.0016 17.5671 16.0016 17.9893 16.2609 18.2497L20.0175 22.021C20.2769 22.2813 20.6973 22.2813 20.9567 22.021C21.216 21.7607 21.216 21.3385 20.9567 21.0781ZM38.8002 17.3068C39.0597 17.0466 39.48 17.0466 39.7394 17.3068C39.9988 17.5672 39.9988 17.9893 39.7394 18.2497L35.9828 22.021C35.7233 22.2813 35.3031 22.2814 35.0436 22.021C34.7843 21.7606 34.7843 21.3385 35.0436 21.0782L38.8002 17.3068ZM37.8317 39.0922H38.625C39.7234 39.0922 40.6171 39.9894 40.6171 41.0922V43.7589C40.6171 44.127 40.3198 44.4256 39.9531 44.4256H16.0469C15.6801 44.4256 15.3828 44.127 15.3828 43.7589V41.0922C15.3828 39.9894 16.2765 39.0922 17.375 39.0922H18.1683L20.3304 26.9264C20.7324 24.7039 22.6557 23.0922 24.9041 23.0922H31.0958C33.3438 23.0922 35.2674 24.7038 35.6698 26.9242L37.8317 39.0922ZM24.9041 24.4256C23.2982 24.4256 21.9243 25.5767 21.6375 27.1626L19.5174 39.0922H36.4826L34.3627 27.1606C34.0757 25.5768 32.7016 24.4256 31.0958 24.4256H24.9041ZM16.7109 43.0922H39.289V41.0922C39.289 40.7246 38.9911 40.4256 38.625 40.4256H17.375C17.0088 40.4256 16.7109 40.7246 16.7109 41.0922V43.0922ZM31.9844 29.0922C31.9844 28.7242 32.2819 28.4255 32.6484 28.4255C33.015 28.4255 33.3125 28.7242 33.3125 29.0922C33.3125 29.4602 33.015 29.7589 32.6484 29.7589C32.2819 29.7589 31.9844 29.4602 31.9844 29.0922ZM34.7893 36.9731L33.8151 31.5897C33.7496 31.2273 33.4033 30.9868 33.0431 31.0529C32.6822 31.1187 32.4428 31.4657 32.5084 31.828L33.4825 37.2113C33.5486 37.5764 33.8971 37.8137 34.2546 37.7481C34.6155 37.6823 34.8549 37.3353 34.7893 36.9731ZM38.625 28.4255H44.3359C44.7026 28.4255 45 28.7241 45 29.0922C45 29.4603 44.7026 29.7589 44.3359 29.7589H38.625C38.2583 29.7589 37.9609 29.4603 37.9609 29.0922C37.9609 28.7241 38.2583 28.4255 38.625 28.4255ZM17.375 28.4255H11.6641C11.2973 28.4255 11 28.7241 11 29.0922C11 29.4603 11.2973 29.7589 11.6641 29.7589H17.375C17.7417 29.7589 18.039 29.4603 18.039 29.0922C18.039 28.7241 17.7417 28.4255 17.375 28.4255Z" fill="white"/>
</svg>
