<svg width="115" height="29" viewBox="0 0 115 29" fill="none" xmlns="http://www.w3.org/2000/svg">
<path fill-rule="evenodd" clip-rule="evenodd" d="M25.6906 14.6004C25.6906 20.7254 20.7254 25.6906 14.6004 25.6906C12.6349 25.6906 10.7887 25.1793 9.1878 24.2824V25.3931C9.1878 25.877 8.79552 26.2692 8.31161 26.2692H4.38801C3.9041 26.2692 3.51182 25.877 3.51182 25.3931V14.7885C3.51078 14.726 3.51025 14.6633 3.51025 14.6004C3.51025 8.4755 8.4755 3.51025 14.6004 3.51025C20.7254 3.51025 25.6906 8.4755 25.6906 14.6004ZM14.4802 9.40531C11.3122 9.40531 8.67594 11.5953 8.12365 14.4851C8.67653 17.3749 11.3122 19.5649 14.4802 19.5649C17.6482 19.5649 20.2845 17.3749 20.8368 14.4851C20.2839 11.5953 17.6482 9.40531 14.4802 9.40531ZM16.5575 16.4806C16.0066 17.0099 15.2594 17.3072 14.4802 17.3072C13.7011 17.3072 12.9539 17.0099 12.403 16.4806C11.852 15.9514 11.5425 15.2336 11.5425 14.4851C11.5425 13.7366 11.852 13.0188 12.403 12.4896C12.9539 11.9603 13.7011 11.663 14.4802 11.663C15.2594 11.663 16.0066 11.9603 16.5575 12.4896C17.1084 13.0188 17.4179 13.7366 17.4179 14.4851C17.4179 15.2336 17.1084 15.9514 16.5575 16.4806ZM13.2339 15.6824C13.5644 16 14.0128 16.1784 14.4802 16.1784C14.9477 16.1784 15.396 16 15.7266 15.6824C16.0571 15.3649 16.2428 14.9342 16.2428 14.4851C16.2428 14.036 16.0571 13.6053 15.7266 13.2878C15.396 12.9702 14.9477 12.7918 14.4802 12.7918C14.0128 12.7918 13.5644 12.9702 13.2339 13.2878C12.9033 13.6053 12.7176 14.036 12.7176 14.4851C12.7176 14.9342 12.9033 15.3649 13.2339 15.6824Z" fill="#FFB800"/>
<path d="M42.6565 23.6506H37.6612V5.1548H42.5008C44.9126 5.1548 46.7015 5.64595 47.8674 6.62824C49.241 7.78623 49.9278 9.39543 49.9278 11.4558C49.9278 13.6999 49.1971 15.373 47.7357 16.4751C46.7374 17.2178 45.3039 17.5892 43.4351 17.5892H42.6565V23.6506ZM42.6565 13.4324L42.8841 13.4444C43.491 13.4444 43.9742 13.2607 44.3336 12.8933C44.693 12.518 44.8726 12.0069 44.8726 11.36C44.8726 10.7211 44.6969 10.202 44.3456 9.80272C43.9942 9.39543 43.5469 9.19178 43.0039 9.19178H42.6565V13.4324ZM51.6768 23.6506V5.1548H60.9607V9.50324H56.6721V12.1986H60.5174V16.3793H56.6721V19.2064H60.9607V23.6506H51.6768ZM63.1049 23.6506V5.1548H72.3888V9.50324H68.1002V12.1986H71.9456V16.3793H68.1002V19.2064H72.3888V23.6506H63.1049ZM88.1054 23.6506H82.7148L79.3966 15.1215L79.5284 23.6506H74.5331V5.1548H79.5284L79.3966 13.085L82.3435 5.1548H87.6143L83.6252 14.0793L88.1054 23.6506Z" fill="black"/>
<path d="M94.5502 23.6506H89.5549V5.1548H94.5502V23.6506ZM97.1497 23.6506V5.1548H101.917L104.421 11.6475C104.557 12.0308 104.709 12.4701 104.876 12.9652C105.052 13.4604 105.244 14.0314 105.451 14.6782L105.966 16.3074C105.783 14.7022 105.643 13.3286 105.547 12.1866C105.451 11.0446 105.403 10.0862 105.403 9.31157V5.1548H110.171V23.6506H105.403L102.888 16.8465C102.624 16.1197 102.385 15.4409 102.169 14.81C101.961 14.1711 101.778 13.5642 101.618 12.9892C101.722 14.2909 101.798 15.4249 101.846 16.3913C101.893 17.3576 101.917 18.2041 101.917 18.9308V23.6506H97.1497Z" fill="#FFB800"/>
</svg>
