<svg width="161" height="48" viewBox="0 0 161 48" fill="none" xmlns="http://www.w3.org/2000/svg">
<path d="M154.574 47.6291H6.42593C3.16667 47.6291 0.5 44.9625 0.5 41.7032V6.14761C0.5 2.88835 3.16667 0.22168 6.42593 0.22168H154.574C157.833 0.22168 160.5 2.88835 160.5 6.14761V41.7032C160.5 44.9625 157.833 47.6291 154.574 47.6291Z" fill="black"/>
<path d="M154.574 0.22168H6.42593C3.16667 0.22168 0.5 2.88835 0.5 6.14761V41.7032C0.5 44.9625 3.16667 47.6291 6.42593 47.6291H154.574C157.833 47.6291 160.5 44.9625 160.5 41.7032V6.14761C160.5 2.88835 157.833 0.22168 154.574 0.22168ZM154.574 1.17005C157.319 1.17005 159.552 3.40294 159.552 6.14783V41.7034C159.552 44.4483 157.319 46.6812 154.574 46.6812H6.42593C3.68104 46.6812 1.44815 44.4483 1.44815 41.7034V6.14783C1.44815 3.40294 3.68104 1.17005 6.42593 1.17005H154.574Z" fill="#A6A6A6"/>
<path d="M56.6992 12.3619C56.6992 13.3551 56.4053 14.1456 55.8163 14.7358C55.1466 15.4375 54.2755 15.7883 53.2041 15.7883C52.1766 15.7883 51.3043 15.4327 50.5872 14.7204C49.8678 14.0093 49.5099 13.1264 49.5099 12.0739C49.5099 11.0203 49.8678 10.1385 50.5872 9.42621C51.3043 8.7151 52.1766 8.35836 53.2041 8.35836C53.7126 8.35836 54.2009 8.45791 54.6631 8.65703C55.1265 8.85614 55.4975 9.12043 55.776 9.4511L55.1502 10.0769C54.6797 9.5151 54.0314 9.23303 53.2041 9.23303C52.4551 9.23303 51.808 9.49614 51.2616 10.0224C50.7152 10.5498 50.4426 11.2324 50.4426 12.0739C50.4426 12.9142 50.7152 13.5981 51.2616 14.1243C51.808 14.6517 52.4551 14.9136 53.2041 14.9136C53.9982 14.9136 54.6595 14.6493 55.1905 14.1195C55.5342 13.7747 55.7321 13.2958 55.7855 12.6795H53.2041V11.825H56.6495C56.6826 12.0111 56.6992 12.1901 56.6992 12.3619Z" fill="white"/>
<path d="M62.1624 9.39285H58.9244V11.6471H61.8447V12.5016H58.9244V14.7558H62.1624V15.6305H58.0107V8.51937H62.1624V9.39285Z" fill="white"/>
<path d="M66.0149 15.6303H65.1011V9.39263H63.1147V8.51915H68.0013V9.39263H66.0149V15.6303Z" fill="white"/>
<path d="M71.5369 8.51915H72.4507V15.6303H71.5369V8.51915Z" fill="white"/>
<path d="M76.5043 15.6303H75.5905V9.39263H73.6041V8.51915H78.4907V9.39263H76.5043V15.6303Z" fill="white"/>
<path d="M83.2015 14.1148C83.7277 14.6481 84.3713 14.9136 85.1334 14.9136C85.8954 14.9136 86.539 14.6481 87.0652 14.1148C87.5914 13.5815 87.8557 12.9012 87.8557 12.0739C87.8557 11.2467 87.5914 10.5652 87.0652 10.033C86.539 9.49969 85.8954 9.23303 85.1334 9.23303C84.3713 9.23303 83.7277 9.49969 83.2015 10.033C82.6765 10.5652 82.4122 11.2467 82.4122 12.0739C82.4122 12.9012 82.6765 13.5815 83.2015 14.1148ZM87.7408 14.7098C87.0415 15.4292 86.1728 15.7883 85.1334 15.7883C84.094 15.7883 83.2252 15.4292 82.5271 14.7098C81.8279 13.9915 81.4794 13.1133 81.4794 12.0739C81.4794 11.0345 81.8279 10.1551 82.5271 9.43688C83.2252 8.71866 84.094 8.35836 85.1334 8.35836C86.1668 8.35836 87.0332 8.71984 87.736 9.44162C88.4377 10.1634 88.7885 11.0404 88.7885 12.0739C88.7885 13.1133 88.4389 13.9915 87.7408 14.7098Z" fill="white"/>
<path d="M90.0705 15.6303V8.51915H91.1822L94.6382 14.0504H94.6785L94.6382 12.6803V8.51915H95.5532V15.6303H94.5991L90.9831 9.82996H90.944L90.9831 11.2012V15.6303H90.0705Z" fill="white"/>
<path d="M127.24 35.7775H129.451V20.9615H127.24V35.7775ZM147.159 26.2984L144.624 32.7221H144.548L141.917 26.2984H139.535L143.48 35.2761L141.232 40.2705H143.537L149.618 26.2984H147.159ZM134.617 34.0945C133.892 34.0945 132.882 33.733 132.882 32.8358C132.882 31.6933 134.14 31.2548 135.227 31.2548C136.198 31.2548 136.657 31.4646 137.247 31.7502C137.075 33.1227 135.894 34.0945 134.617 34.0945ZM134.884 25.9748C133.283 25.9748 131.624 26.68 130.939 28.2432L132.901 29.0622C133.321 28.2433 134.102 27.9754 134.922 27.9754C136.066 27.9754 137.228 28.6616 137.247 29.8824V30.0341C136.847 29.8053 135.99 29.4628 134.941 29.4628C132.825 29.4628 130.671 30.6255 130.671 32.7979C130.671 34.7807 132.406 36.0584 134.35 36.0584C135.837 36.0584 136.657 35.3911 137.171 34.6089H137.247V35.7526H139.382V30.072C139.382 27.4421 137.419 25.9748 134.884 25.9748ZM121.217 28.1022H118.071V23.0237H121.217C122.87 23.0237 123.809 24.3926 123.809 25.5624C123.809 26.7108 122.87 28.1022 121.217 28.1022ZM121.16 20.9615H115.861V35.7775H118.071V30.1644H121.16C123.611 30.1644 126.02 28.389 126.02 25.5624C126.02 22.7357 123.611 20.9615 121.16 20.9615ZM92.2636 34.0969C90.7359 34.0969 89.4571 32.8181 89.4571 31.0616C89.4571 29.2862 90.7359 27.9873 92.2636 27.9873C93.7724 27.9873 94.9552 29.2862 94.9552 31.0616C94.9552 32.8181 93.7724 34.0969 92.2636 34.0969ZM94.8035 27.128H94.7264C94.2298 26.5366 93.2758 26.0021 92.0728 26.0021C89.5519 26.0021 87.242 28.216 87.242 31.0616C87.242 33.8871 89.5519 36.0833 92.0728 36.0833C93.2758 36.0833 94.2298 35.5487 94.7264 34.9372H94.8035V35.6637C94.8035 37.592 93.7724 38.6231 92.1107 38.6231C90.7549 38.6231 89.9146 37.6489 89.5709 36.8276L87.6426 37.6299C88.1961 38.9668 89.6669 40.6083 92.1107 40.6083C94.7075 40.6083 96.9036 39.0806 96.9036 35.3579V26.3067H94.8035V27.128ZM98.4313 35.7775H100.646V20.9603H98.4313V35.7775ZM103.91 30.8898C103.854 28.9425 105.419 27.9493 106.545 27.9493C107.425 27.9493 108.169 28.3878 108.417 29.0184L103.91 30.8898ZM110.785 29.2092C110.365 28.0833 109.085 26.0021 106.469 26.0021C103.873 26.0021 101.715 28.0441 101.715 31.0427C101.715 33.8681 103.854 36.0833 106.717 36.0833C109.028 36.0833 110.365 34.6705 110.918 33.8492L109.2 32.7031C108.627 33.5434 107.844 34.0969 106.717 34.0969C105.591 34.0969 104.789 33.5813 104.273 32.5704L111.013 29.7816L110.785 29.2092ZM57.0861 27.5487V29.6868H62.2026C62.0497 30.8898 61.6491 31.768 61.0387 32.3784C60.2932 33.1238 59.1282 33.9452 57.0861 33.9452C53.9347 33.9452 51.4719 31.4053 51.4719 28.2551C51.4719 25.1037 53.9347 22.565 57.0861 22.565C58.7857 22.565 60.0266 23.2335 60.9427 24.0927L62.4515 22.584C61.1715 21.3621 59.4731 20.4258 57.0861 20.4258C52.7709 20.4258 49.143 23.9398 49.143 28.2551C49.143 32.5704 52.7709 36.0833 57.0861 36.0833C59.415 36.0833 61.1715 35.3188 62.5463 33.8871C63.9602 32.4744 64.3987 30.4892 64.3987 28.8844C64.3987 28.3878 64.3608 27.9304 64.2838 27.5487H57.0861ZM70.2168 34.0969C68.6891 34.0969 67.3712 32.837 67.3712 31.0427C67.3712 29.2281 68.6891 27.9873 70.2168 27.9873C71.7433 27.9873 73.0612 29.2281 73.0612 31.0427C73.0612 32.837 71.7433 34.0969 70.2168 34.0969ZM70.2168 26.0021C67.4281 26.0021 65.1561 28.1212 65.1561 31.0427C65.1561 33.9452 67.4281 36.0833 70.2168 36.0833C73.0044 36.0833 75.2764 33.9452 75.2764 31.0427C75.2764 28.1212 73.0044 26.0021 70.2168 26.0021ZM81.2544 34.0969C79.7267 34.0969 78.4088 32.837 78.4088 31.0427C78.4088 29.2281 79.7267 27.9873 81.2544 27.9873C82.7821 27.9873 84.0989 29.2281 84.0989 31.0427C84.0989 32.837 82.7821 34.0969 81.2544 34.0969ZM81.2544 26.0021C78.4669 26.0021 76.1949 28.1212 76.1949 31.0427C76.1949 33.9452 78.4669 36.0833 81.2544 36.0833C84.042 36.0833 86.314 33.9452 86.314 31.0427C86.314 28.1212 84.042 26.0021 81.2544 26.0021Z" fill="white"/>
<path d="M25.0532 23.2443L12.4345 36.6369C12.4357 36.6393 12.4357 36.6428 12.4369 36.6452C12.8244 38.0994 14.1518 39.1696 15.7281 39.1696C16.3586 39.1696 16.95 38.999 17.4573 38.7003L17.4976 38.6766L31.7009 30.481L25.0532 23.2443Z" fill="#EA4335"/>
<path d="M37.8202 20.9622L37.8084 20.9539L31.6762 17.3995L24.7678 23.547L31.7011 30.478L37.8001 26.9592C38.8691 26.3808 39.5956 25.2537 39.5956 23.9548C39.5956 22.6629 38.8798 21.5417 37.8202 20.9622Z" fill="#FBBC04"/>
<path d="M12.4341 11.2179C12.3583 11.4976 12.318 11.7915 12.318 12.0949V35.7607C12.318 36.0641 12.3574 36.3584 12.4345 36.6369L25.4865 23.5865L12.4341 11.2179Z" fill="#4285F4"/>
<path d="M25.1461 23.9268L31.6765 17.3976L17.4898 9.17245C16.9743 8.86311 16.3722 8.68534 15.7286 8.68534C14.1523 8.68534 12.8226 9.75793 12.435 11.2133C12.435 11.2145 12.4338 11.2157 12.4338 11.2169L25.1461 23.9268Z" fill="#34A853"/>
</svg>
